<svg width="20" height="20" viewBox="0 0 20 20" fill="none" xmlns="http://www.w3.org/2000/svg">
<path d="M9.99999 12.5L12.5 10M12.5 10L9.99999 7.5M12.5 10H3.33333M7.49999 6.04049V6.00017C7.49999 5.06674 7.49999 4.59969 7.68165 4.24317C7.84144 3.92956 8.09622 3.67478 8.40983 3.51499C8.76633 3.33334 9.23341 3.33334 10.1668 3.33334H14.0002C14.9336 3.33334 15.3997 3.33334 15.7562 3.51499C16.0697 3.67478 16.3254 3.92956 16.4852 4.24317C16.6667 4.59934 16.6667 5.06583 16.6667 5.99743V14.003C16.6667 14.9346 16.6667 15.4004 16.4852 15.7566C16.3254 16.0702 16.0697 16.3254 15.7562 16.4852C15.4 16.6667 14.9342 16.6667 14.0026 16.6667H10.1641C9.23249 16.6667 8.76599 16.6667 8.40983 16.4852C8.09622 16.3254 7.84144 16.0699 7.68165 15.7563C7.49999 15.3998 7.49999 14.9334 7.49999 14V13.9583" stroke="black" stroke-width="1.5" stroke-linecap="round" stroke-linejoin="round"/>
</svg>
