<svg width="44" height="40" viewBox="0 0 44 40" fill="none" xmlns="http://www.w3.org/2000/svg">
<path d="M14.8192 0.249022C13.4984 0.161436 12.2003 0.397753 11.0625 1.05469C9.54538 1.9306 8.53509 3.42571 7.99243 5.14709C7.44978 6.86848 7.32436 8.85229 7.52246 11.0187C7.54253 11.2381 7.58113 11.4668 7.60791 11.6901C7.40082 11.7786 7.18273 11.86 6.9823 11.9525C5.0071 12.8641 3.35249 13.9635 2.13306 15.2942C0.913623 16.6248 0.125 18.2482 0.125 20C0.125 21.7518 0.913623 23.3752 2.13306 24.7058C3.35249 26.0365 5.0071 27.1359 6.9823 28.0475C7.18273 28.14 7.40082 28.2214 7.60791 28.3099C7.58113 28.5332 7.54253 28.7619 7.52246 28.9813C7.32436 31.1477 7.44978 33.1315 7.99243 34.8529C8.53509 36.5743 9.54538 38.0694 11.0625 38.9453C12.5796 39.8212 14.3785 39.9495 16.1406 39.5587C17.9027 39.168 19.6827 38.2836 21.4598 37.0288C21.6398 36.9018 21.8202 36.7546 22 36.6199C22.1798 36.7546 22.3602 36.9018 22.5402 37.0288C24.3173 38.2836 26.0973 39.168 27.8594 39.5587C29.6215 39.9495 31.4204 39.8212 32.9375 38.9453C34.4546 38.0694 35.4649 36.5743 36.0076 34.8529C36.5502 33.1315 36.6756 31.1477 36.4775 28.9813C36.4575 28.7619 36.4189 28.5332 36.3921 28.3099C36.5992 28.2214 36.8173 28.14 37.0177 28.0475C38.9929 27.1359 40.6475 26.0365 41.8669 24.7058C43.0864 23.3752 43.875 21.7518 43.875 20C43.875 18.2482 43.0864 16.6248 41.8669 15.2942C40.6475 13.9635 38.9929 12.8641 37.0177 11.9525C36.8173 11.86 36.5992 11.7786 36.3921 11.6901C36.4189 11.4668 36.4575 11.2381 36.4775 11.0187C36.6756 8.85229 36.5502 6.86848 36.0076 5.14709C35.4649 3.42571 34.4546 1.9306 32.9375 1.05469C31.4204 0.178775 29.6215 0.0505456 27.8594 0.441283C26.0973 0.832021 24.3173 1.71643 22.5402 2.97119C22.3602 3.09822 22.1798 3.24539 22 3.38013C21.8202 3.24539 21.6398 3.09822 21.4598 2.97119C19.6827 1.71643 17.9027 0.832021 16.1406 0.441283C15.7001 0.343598 15.2595 0.278217 14.8192 0.249022ZM14.6147 3.36182C14.881 3.38186 15.1641 3.42605 15.4662 3.49304C16.6469 3.75487 18.061 4.41761 19.5525 5.45532C18.3103 6.63371 17.0878 7.9743 15.9209 9.47449C14.0404 9.73495 12.2691 10.1206 10.6292 10.6067C10.4764 8.79691 10.6074 7.24015 10.9709 6.08704C11.3431 4.90649 11.9001 4.1801 12.625 3.7616C13.1687 3.44772 13.8159 3.30167 14.6147 3.36182ZM29.3853 3.36182C30.1841 3.30167 30.8313 3.44772 31.375 3.7616C32.0999 4.1801 32.6569 4.90649 33.0291 6.08704C33.3926 7.24015 33.5236 8.79691 33.3708 10.6067C31.7309 10.1206 29.9596 9.73495 28.0791 9.47449C26.9122 7.9743 25.6897 6.63371 24.4475 5.45532C25.939 4.41761 27.3531 3.75487 28.5338 3.49304C28.8359 3.42605 29.119 3.38186 29.3853 3.36182ZM22 7.43591C22.5492 7.94369 23.0974 8.50834 23.6449 9.09912C23.1 9.07985 22.5555 9.0625 22 9.0625C21.4445 9.0625 20.9 9.07985 20.3551 9.09912C20.9026 8.50834 21.4508 7.94369 22 7.43591ZM22 12.1875C23.5071 12.1875 24.9678 12.2761 26.3732 12.4255C27.2052 13.5679 28.0122 14.7886 28.7657 16.0938C29.5193 17.399 30.173 18.7081 30.7463 20C30.173 21.2919 29.5193 22.601 28.7657 23.9063C28.0122 25.2114 27.2052 26.4321 26.3732 27.5745C24.9678 27.7239 23.5071 27.8125 22 27.8125C20.4929 27.8125 19.0322 27.7239 17.6268 27.5745C16.7948 26.4321 15.9878 25.2114 15.2343 23.9063C14.4807 22.601 13.827 21.2919 13.2537 20C13.827 18.7081 14.4807 17.399 15.2343 16.0938C15.9878 14.7886 16.7948 13.5679 17.6268 12.4255C19.0322 12.2761 20.4929 12.1875 22 12.1875ZM13.3818 13.1244C13.0927 13.5866 12.8051 14.0502 12.5273 14.5313C12.2496 15.0123 11.9927 15.4932 11.7369 15.9747C11.4994 15.2064 11.2855 14.448 11.1205 13.7195C11.8346 13.4978 12.5968 13.3031 13.3818 13.1244ZM30.6182 13.1244C31.4032 13.3031 32.1654 13.4978 32.8795 13.7195C32.7145 14.448 32.5006 15.2064 32.2631 15.9747C32.0073 15.4932 31.7504 15.0123 31.4727 14.5313C31.1949 14.0502 30.9073 13.5866 30.6182 13.1244ZM8.17859 14.8486C8.5779 16.5133 9.12933 18.2397 9.84485 20C9.12933 21.7603 8.5779 23.4867 8.17859 25.1514C6.53564 24.3789 5.25376 23.4851 4.43713 22.594C3.60083 21.6814 3.25 20.837 3.25 20C3.25 19.163 3.60083 18.3186 4.43713 17.406C5.25376 16.5149 6.53564 15.6211 8.17859 14.8486ZM35.8214 14.8486C37.4644 15.6211 38.7462 16.5149 39.5629 17.406C40.3992 18.3186 40.75 19.163 40.75 20C40.75 20.837 40.3992 21.6814 39.5629 22.594C38.7462 23.4851 37.4644 24.3789 35.8214 25.1514C35.4221 23.4867 34.8707 21.7603 34.1552 20C34.8707 18.2397 35.4221 16.5133 35.8214 14.8486ZM22 15.3125C19.4297 15.3125 17.3125 17.4297 17.3125 20C17.3125 22.5703 19.4297 24.6875 22 24.6875C24.5703 24.6875 26.6875 22.5703 26.6875 20C26.6875 17.4297 24.5703 15.3125 22 15.3125ZM22 18.4375C22.8815 18.4375 23.5625 19.1186 23.5625 20C23.5625 20.8815 22.8815 21.5625 22 21.5625C21.1185 21.5625 20.4375 20.8815 20.4375 20C20.4375 19.1186 21.1185 18.4375 22 18.4375ZM11.7369 24.0253C11.9927 24.5068 12.2496 24.9877 12.5273 25.4688C12.8051 25.9498 13.0927 26.4134 13.3818 26.8756C12.5968 26.6969 11.8346 26.5022 11.1205 26.2805C11.2855 25.552 11.4994 24.7936 11.7369 24.0253ZM32.2631 24.0253C32.5006 24.7936 32.7145 25.552 32.8795 26.2805C32.1654 26.5022 31.4032 26.6969 30.6182 26.8756C30.9073 26.4134 31.1949 25.9498 31.4727 25.4688C31.7504 24.9877 32.0073 24.5068 32.2631 24.0253ZM10.6292 29.3933C12.2691 29.8794 14.0404 30.2651 15.9209 30.5255C17.0878 32.0257 18.3103 33.3663 19.5525 34.5447C18.061 35.5824 16.6469 36.2451 15.4662 36.507C14.2577 36.7749 13.3499 36.6569 12.625 36.2384C11.9001 35.8199 11.3431 35.0935 10.9709 33.913C10.6074 32.7598 10.4764 31.2031 10.6292 29.3933ZM33.3708 29.3933C33.5236 31.2031 33.3926 32.7598 33.0291 33.913C32.6569 35.0935 32.0999 35.8199 31.375 36.2384C30.6501 36.6569 29.7423 36.7749 28.5338 36.507C27.3531 36.2451 25.939 35.5824 24.4475 34.5447C25.6897 33.3663 26.9122 32.0257 28.0791 30.5255C29.9596 30.2651 31.7309 29.8794 33.3708 29.3933ZM20.3551 30.9009C20.9 30.9201 21.4445 30.9375 22 30.9375C22.5555 30.9375 23.1 30.9201 23.6449 30.9009C23.0974 31.4917 22.5492 32.0563 22 32.5641C21.4508 32.0563 20.9026 31.4917 20.3551 30.9009Z" fill="black"/>
</svg>
