<svg width="32" height="42" viewBox="0 0 32 42" fill="none" xmlns="http://www.w3.org/2000/svg">
<path d="M1.91457 27.3812L6.02082 0.960416C6.05096 0.764752 6.14188 0.583521 6.28069 0.442369C6.4195 0.301217 6.59919 0.207293 6.79432 0.173888C6.98946 0.140483 7.19016 0.169287 7.36802 0.256227C7.54588 0.343166 7.6919 0.483837 7.78541 0.658333L12.2021 8.94792L1.91457 27.3812ZM31.0833 33.7917L27.1729 9.47708C27.1435 9.30691 27.068 9.14805 26.9547 9.01773C26.8414 8.8874 26.6945 8.79058 26.5301 8.73778C26.3657 8.68497 26.19 8.6782 26.0219 8.71818C25.8539 8.75816 25.7001 8.84337 25.5771 8.96458L0.916656 33.7917L14.5625 41.4812C15.4187 41.9604 16.4625 41.9604 17.3187 41.4812L31.0833 33.7917ZM19.9937 12.5729L16.8333 6.525C16.7534 6.37318 16.6336 6.24606 16.4867 6.15739C16.3398 6.06871 16.1715 6.02184 16 6.02184C15.8284 6.02184 15.6601 6.06871 15.5133 6.15739C15.3664 6.24606 15.2465 6.37318 15.1667 6.525L1.28957 31.3937L19.9937 12.5729Z" fill="black"/>
</svg>
